<?xml version="1.0" encoding="UTF-8"?>
<svg version="1.1" xmlns="http://www.w3.org/2000/svg" width="233" height="158">
<path d="M0 0 C4.39413025 0 6.57633985 0.68649149 10.125 3.3125 C15.72299695 9.56558169 17.78802756 18.13907922 19.875 26.0625 C21.21593083 31.00889795 21.21593083 31.00889795 25.3125 33.9375 C27.1378125 34.4634375 27.1378125 34.4634375 29 35 C30.92306806 36.46500668 32.6607179 38.04114158 34.421875 39.6953125 C36.08244886 41.22790359 36.08244886 41.22790359 39 42 C39.09706112 35.88514973 38.77040851 30.06696699 38 24 C39.98 23.505 39.98 23.505 42 23 C42.99 26.63 43.98 30.26 45 34 C47.475 33.505 47.475 33.505 50 33 C50.33 27.72 50.66 22.44 51 17 C52.98 16.505 52.98 16.505 55 16 C55.61875 16.969375 56.2375 17.93875 56.875 18.9375 C58.65678846 22.02835362 58.65678846 22.02835362 61 23 C63.37402501 23.07116382 65.75000677 23.08409085 68.125 23.0625 C69.40632812 23.05347656 70.68765625 23.04445313 72.0078125 23.03515625 C72.99523437 23.02355469 73.98265625 23.01195313 75 23 C75 23.99 75 24.98 75 26 C73 28 73 28 69.3046875 28.1953125 C67.82799892 28.182009 66.35137642 28.15814835 64.875 28.125 C64.12089844 28.11597656 63.36679688 28.10695313 62.58984375 28.09765625 C60.72642746 28.0740687 58.86317407 28.03819719 57 28 C56.81824219 28.54269531 56.63648438 29.08539063 56.44921875 29.64453125 C56.07216797 30.71767578 56.07216797 30.71767578 55.6875 31.8125 C55.44386719 32.52019531 55.20023438 33.22789063 54.94921875 33.95703125 C53.89991138 36.21541706 52.97290183 37.48238321 51 39 C47.3125 39.1875 47.3125 39.1875 44 39 C43.79375 39.94875 43.5875 40.8975 43.375 41.875 C42 45 42 45 39.3125 46.625 C33.76116092 47.25345348 30.42564398 44.12820747 26.28515625 40.8515625 C25.15400391 39.93503906 25.15400391 39.93503906 24 39 C23.04555276 47.72801755 22.39928885 54.79037858 26 63 C32.51769135 60.32309105 38.53049099 57.05855825 44.63183594 53.56518555 C50.09105864 50.46036336 55.65287231 47.63508614 61.29272461 44.87548828 C65.18788268 42.95387062 68.91861647 40.89768217 72.625 38.625 C79.12418921 34.73262844 85.99116006 31.71024801 92.90869141 28.63916016 C98.29433659 26.24800706 103.57376848 23.74143769 108.79199219 21.00170898 C111.89454696 19.59417004 114.61663627 19.22065416 118 19 C118 20.32 118 21.64 118 23 C117.46375 23.1959375 116.9275 23.391875 116.375 23.59375 C110.27863536 25.9199944 104.46946771 28.70076908 98.66015625 31.65649414 C93.87726193 34.08268788 89.05338827 36.4004968 84.19628906 38.67431641 C76.10055296 42.4670852 68.19686511 46.42848762 60.45166016 50.89526367 C56.8153292 52.99136527 53.16493531 54.93859422 49.375 56.75 C38.0904632 62.26792089 27.28366518 69.00419678 16.6796875 75.7265625 C13.6597982 77.62546705 10.59812948 79.27524372 7.375 80.8125 C2.17734219 83.36217073 -2.84037522 86.13072624 -7.84472656 89.03393555 C-11.48343148 91.14339551 -15.15646418 93.16029643 -18.875 95.125 C-27.73937539 99.96011385 -34.34288025 105.75103988 -40.3828125 113.85546875 C-43.9970881 118.53337403 -47.96383595 120.87394323 -53.21484375 123.53125 C-55.77974968 124.88385116 -58.02825223 126.36834691 -60.375 128.0625 C-67.91624296 133.19379458 -76.77876857 137.15265393 -86 136 C-89.95522332 135.19097705 -90.87950864 134.15138658 -93.4375 130.9375 C-95.45025828 127.04183882 -94.96675366 124.23091382 -93.75390625 120.12109375 C-88.5951097 105.60696668 -74.43017586 95.52486071 -61.0625 88.8125 C-59.7154463 88.19263626 -58.36426056 87.5810145 -57 87 C-57.23783203 86.10087891 -57.23783203 86.10087891 -57.48046875 85.18359375 C-69.02519363 40.34413745 -69.02519363 40.34413745 -63 29 C-61.23291769 26.09814599 -59.2357904 23.55518902 -57 21 C-56.36191406 20.2678125 -55.72382812 19.535625 -55.06640625 18.78125 C-47.67974206 10.86599884 -37.68881654 3.49405719 -27 1 C-22.21029392 1.20755393 -19.00608652 2.0442178 -15.5 5.375 C-12.85652873 10.00107471 -12.83916643 14.00587975 -12.8125 19.3125 C-12.79832031 20.58738281 -12.78414063 21.86226562 -12.76953125 23.17578125 C-13.19894198 30.30108819 -15.23118991 34.77578273 -19.5 40.4375 C-22.97699143 45.18982254 -25.19292924 49.11991303 -26 55 C-27.65 54.67 -29.3 54.34 -31 54 C-30.74412595 55.77305664 -30.46972261 57.54344608 -30.1875 59.3125 C-29.96126953 60.79169922 -29.96126953 60.79169922 -29.73046875 62.30078125 C-28.95980166 65.14854041 -28.39115319 66.30869652 -26 68 C-21.7740424 67.71826949 -17.97272287 66.4188296 -14 65 C-14.33 64.34 -14.66 63.68 -15 63 C-15.41263909 59.28624815 -15.47331812 55.70949317 -15 52 C-11.9390521 48.17381513 -6.80253105 46.02161197 -2 45 C-0.02 45.495 -0.02 45.495 2 46 C2.99 50.95 2.99 50.95 4 56 C8.59267487 57.47861186 8.59267487 57.47861186 10.80078125 56.00390625 C11.29964844 55.52824219 11.79851562 55.05257812 12.3125 54.5625 C13.6428125 53.2940625 13.6428125 53.2940625 15 52 C12.560221 45.40396033 10.02056377 38.91663933 7 32.5625 C4.30112675 26.83782813 2.13638087 21.07641374 0.078125 15.09375 C-0.60694437 13.12789876 -1.34643643 11.17955428 -2.15625 9.26171875 C-3.21617284 6.42053669 -2.92631189 4.85612833 -2 2 C-1.34 1.34 -0.68 0.68 0 0 Z M4 6 C2.71558494 8.02395621 2.71558494 8.02395621 3.63671875 10.50390625 C5.52221854 15.9921826 7.48171357 21.36401737 9.92578125 26.62890625 C11.69389978 30.53162606 13.25701092 34.51987117 14.8515625 38.49609375 C15.87188171 41.10383822 15.87188171 41.10383822 18 43 C18.65869797 31.3630025 14.67125564 17.36570418 7.25 8.25 C6.5075 7.5075 5.765 6.765 5 6 C4.67 6 4.34 6 4 6 Z M-55.1640625 25.45703125 C-59.45964861 31.06957688 -61.45835315 35.87006212 -61 43 C-59.48726228 49.1884725 -55.11835903 53.311096 -50 56.796875 C-45.11448432 59.73581803 -40.75151303 62 -35 62 C-35.144375 61.16082031 -35.28875 60.32164063 -35.4375 59.45703125 C-36.66583699 51.49843118 -37.19303251 43.74490745 -37.1875 35.6875 C-37.18814453 34.76235596 -37.18878906 33.83721191 -37.18945312 32.8840332 C-37.13526939 26.27053878 -37.13526939 26.27053878 -36 24 C-33.4375 23.375 -33.4375 23.375 -31 23 C-31.32597168 23.54817383 -31.65194336 24.09634766 -31.98779297 24.66113281 C-33.18670817 27.43141928 -33.22877119 29.41059317 -33.1953125 32.421875 C-33.18886719 33.44667969 -33.18242188 34.47148438 -33.17578125 35.52734375 C-33.15902344 36.59082031 -33.14226562 37.65429688 -33.125 38.75 C-33.11597656 39.82894531 -33.10695313 40.90789063 -33.09765625 42.01953125 C-33.07411305 44.67991278 -33.04122799 47.33984336 -33 50 C-32.34 50.33 -31.68 50.66 -31 51 C-30.46375 49.845 -29.9275 48.69 -29.375 47.5 C-27.43594196 43.59428166 -25.05373182 40.31539006 -22.390625 36.87890625 C-17.59982562 30.40594417 -16.39993688 23.92083314 -17 16 C-18.00173911 10.52107482 -18.00173911 10.52107482 -22 7 C-35.64435841 5.83496447 -46.75753612 15.91243722 -55.1640625 25.45703125 Z M-9.25 53.625 C-11.35997585 55.9471241 -11.35997585 55.9471241 -10.75 59.25 C-10.5025 60.1575 -10.255 61.065 -10 62 C-6.51190809 61.22969878 -6.51190809 61.22969878 -3 60 C-1.7922442 56.37673261 -2.45688872 55.35853631 -4 52 C-7.05723545 51.70725472 -7.05723545 51.70725472 -9.25 53.625 Z M13.4375 59 C9.93888735 61.03555645 9.16675424 61.19989479 5.375 61 C3.07521779 60.84851284 3.07521779 60.84851284 1 61 C-0.37701298 62.28817344 -1.70644173 63.62804426 -3 65 C-5.140625 65.7578125 -5.140625 65.7578125 -7.6875 66.4375 C-12.97200125 67.85088815 -17.35106371 70.15898338 -22 73 C-21.67 73.99 -21.34 74.98 -21 76 C-20.7993303 81.11707747 -21.29091095 85.94774054 -22 91 C-17.08208536 88.96086466 -12.37236863 86.71322339 -7.6875 84.1875 C-7.03233398 83.8363916 -6.37716797 83.4852832 -5.70214844 83.12353516 C-1.19567301 80.69092422 3.21178833 78.1287571 7.57421875 75.4453125 C11.25498215 73.25226506 15.04972831 71.27840262 18.84765625 69.296875 C21.1319128 68.18225786 21.1319128 68.18225786 22 66 C21.23278532 63.75583572 21.23278532 63.75583572 20.0625 61.375 C19.68222656 60.55773437 19.30195313 59.74046875 18.91015625 58.8984375 C18.60980469 58.27195313 18.30945313 57.64546875 18 57 C15.72100511 56.79490971 15.72100511 56.79490971 13.4375 59 Z M-58 59 C-56.86690302 67.68707682 -55.31623271 75.86015607 -52 84 C-48.37 82.35 -44.74 80.7 -41 79 C-43.10747897 70.57008413 -50.2272324 64.13739201 -57 59 C-57.33 59 -57.66 59 -58 59 Z M-45 64 C-43.63629701 66.99220268 -42.05091917 69.29026529 -39.875 71.75 C-39.33617187 72.36359375 -38.79734375 72.9771875 -38.2421875 73.609375 C-37.83226562 74.06828125 -37.42234375 74.5271875 -37 75 C-35.68 74.67 -34.36 74.34 -33 74 C-32.95489639 71.62102997 -32.95489639 71.62102997 -34 69 C-37.19675428 66.44259658 -40.9438528 64.64898355 -45 64 Z M-27 76 C-26.67 78.31 -26.34 80.62 -26 83 C-25.67 83 -25.34 83 -25 83 C-25 80.69 -25 78.38 -25 76 C-25.66 76 -26.32 76 -27 76 Z M-33 79 C-32.34 79.66 -31.68 80.32 -31 81 C-31 80.34 -31 79.68 -31 79 C-31.66 79 -32.32 79 -33 79 Z M-44.625 84.5 C-46.12933594 85.47453125 -46.12933594 85.47453125 -47.6640625 86.46875 C-48.43492188 86.9740625 -49.20578125 87.479375 -50 88 C-49.67021516 95.60154046 -47.87217429 101.97319219 -45 109 C-39.5772886 108.16938775 -37.25816539 104.06184619 -34 100 C-33.46117188 99.36964844 -32.92234375 98.73929688 -32.3671875 98.08984375 C-30.72855877 96.14229208 -30.72855877 96.14229208 -29 93 C-29.58272441 88.33820471 -33.63452384 84.17342453 -37 81 C-40.13172017 81 -42.03609573 82.81420187 -44.625 84.5 Z M-81 108 C-83.30247192 110.51805918 -85.27280977 113.05928207 -87 116 C-87.57814453 116.92425781 -87.57814453 116.92425781 -88.16796875 117.8671875 C-89.26963344 120.69117304 -88.98135362 122.7566296 -88.625 125.75 C-88.51414062 126.73484375 -88.40328125 127.7196875 -88.2890625 128.734375 C-88.19367188 129.48203125 -88.09828125 130.2296875 -88 131 C-76.13383963 133.07186927 -67.62651061 128.56755083 -57.8125 122 C-56.27529297 120.9790625 -56.27529297 120.9790625 -54.70703125 119.9375 C-51.58599233 117.74017592 -51.58599233 117.74017592 -49 115 C-48.3990846 108.99084597 -49.43755256 105.51911756 -52 100 C-52.7715545 97.34865817 -53.38555527 94.6941038 -54 92 C-63.52716215 92 -74.04483176 101.92594472 -81 108 Z " fill="#D7D6DD" transform="translate(112,20)"/>
<path d="M0 0 C4.06269878 3.85956384 4.90026945 6.96596069 5.16796875 12.42578125 C5.17441406 13.70839844 5.18085937 14.99101563 5.1875 16.3125 C5.20167969 17.58738281 5.21585937 18.86226562 5.23046875 20.17578125 C4.80105802 27.30108819 2.76881009 31.77578273 -1.5 37.4375 C-4.97699143 42.18982254 -7.19292924 46.11991303 -8 52 C-9.65 51.67 -11.3 51.34 -13 51 C-12.74412595 52.77305664 -12.46972261 54.54344608 -12.1875 56.3125 C-11.96126953 57.79169922 -11.96126953 57.79169922 -11.73046875 59.30078125 C-10.95980166 62.14854041 -10.39115319 63.30869652 -8 65 C-3.7740424 64.71826949 0.02727713 63.4188296 4 62 C3.67 61.34 3.34 60.68 3 60 C2.58745847 56.28712626 2.50650888 52.70666663 3 49 C5.62289121 45.93996026 8.0174085 44.59001356 12 44 C10.31804868 45.76604889 9.0023145 46.99880969 6.8125 48.125 C4.56482506 50.45018097 4.71819244 51.33867853 4.6875 54.5 C4.77755178 57.34374032 5.0880791 59.2642373 6 62 C8.64 61.67 11.28 61.34 14 61 C10.89459074 59.78918149 10.89459074 59.78918149 7 60 C5.50702788 57.01405576 5.88244772 54.29146376 6 51 C7 49 7 49 8.84765625 48.3671875 C10.8984375 47.91145833 12.94921875 47.45572917 15 47 C15.99 49.97 16.98 52.94 18 56 C21.96 56.33 25.92 56.66 30 57 C28 59 28 59 25.9765625 59.0546875 C24.81253906 58.96574219 24.81253906 58.96574219 23.625 58.875 C19.93701456 58.66973364 19.93701456 58.66973364 17.0625 60.8125 C16.381875 61.534375 15.70125 62.25625 15 63 C12.82421875 63.7578125 12.82421875 63.7578125 10.25 64.4375 C5.18048641 65.79137603 1.26358104 67.98691061 -3 71 C-2.67 71.66 -2.34 72.32 -2 73 C-1.64705882 79.47058824 -1.64705882 79.47058824 -4 83 C-3.98839844 82.40832031 -3.97679688 81.81664063 -3.96484375 81.20703125 C-3.91668485 76.98968723 -3.97005439 73.11978244 -5 69 C-5 68.67 -5 68.34 -5 68 C-5.556875 67.9175 -6.11375 67.835 -6.6875 67.75 C-9 67 -9 67 -11.3125 65.125 C-14.44435328 62.64865089 -17.29719937 61.45207868 -21 60 C-19.02 59.505 -19.02 59.505 -17 59 C-17.2165625 58.16082031 -17.433125 57.32164063 -17.65625 56.45703125 C-19.50003978 48.49288371 -20.30120639 40.93433895 -20.3125 32.75 C-20.32023437 31.37485229 -20.32023437 31.37485229 -20.328125 29.97192383 C-20.25922436 23.38883654 -20.25922436 23.38883654 -18 20 C-15.375 19.8125 -15.375 19.8125 -13 20 C-13.16298584 20.54817383 -13.32597168 21.09634766 -13.49389648 21.66113281 C-14.06803556 24.31441423 -14.11273652 26.70742678 -14.09765625 29.421875 C-14.09443359 30.44667969 -14.09121094 31.47148438 -14.08789062 32.52734375 C-14.07951172 33.59082031 -14.07113281 34.65429688 -14.0625 35.75 C-14.05798828 36.82894531 -14.05347656 37.90789063 -14.04882812 39.01953125 C-14.03705727 41.67974383 -14.02061399 44.33984365 -14 47 C-13.58049072 46.28384521 -13.16098145 45.56769043 -12.72875977 44.82983398 C-10.05706545 40.28173426 -7.31099638 36.11020241 -4 32 C-0.25368524 25.33988488 1.19425717 18.50396783 -0.44921875 10.9296875 C-0.92201566 9.27322175 -1.45526009 7.63421973 -2 6 C-9.37129228 4.23729967 -15.40479705 6.0525984 -22 9.625 C-34.55954167 19.09572929 -34.55954167 19.09572929 -41.546875 32.6484375 C-41.71559648 34.34061466 -41.83705698 36.03868507 -41.89453125 37.73828125 C-41.99806431 39.95849013 -42.39041326 41.86888475 -43 44 C-43.66 42.68 -44.32 41.36 -45 40 C-45.32610795 46.84826688 -44.11185667 52.86089306 -42.5 59.5 C-42.26152344 60.51320312 -42.02304687 61.52640625 -41.77734375 62.5703125 C-41.19277966 65.04886426 -40.60018531 67.52519334 -40 70 C-40.144375 69.11957031 -40.28875 68.23914063 -40.4375 67.33203125 C-40.7159375 65.58986328 -40.7159375 65.58986328 -41 63.8125 C-41.185625 62.66394531 -41.37125 61.51539063 -41.5625 60.33203125 C-41.93489477 57.49584607 -42.08596021 54.85280436 -42 52 C-40.66536458 53.26953125 -39.33072917 54.5390625 -37.99609375 55.80859375 C-35.13724524 57.51495147 -32.28485514 57.55081835 -29 58 C-26.53131315 58.82901705 -24.09126976 59.74821411 -21.6875 60.75 C-20.47449219 61.23984375 -19.26148438 61.7296875 -18.01171875 62.234375 C-15 64 -15 64 -13.55859375 66.52734375 C-12.91877313 69.35955668 -13.20808981 71.22831432 -14 74 C-13.34 74 -12.68 74 -12 74 C-11.505 77.96 -11.505 77.96 -11 82 C-11.66 82 -12.32 82 -13 82 C-15.74375671 79.04518508 -16 78.22528092 -16 74 C-16.59554687 73.9071875 -17.19109375 73.814375 -17.8046875 73.71875 C-20.50876569 72.83342903 -21.38690187 71.72039762 -23.125 69.5 C-25.19887681 66.8119616 -25.19887681 66.8119616 -28 65 C-28 65.66 -28 66.32 -28 67 C-27.34 67 -26.68 67 -26 67 C-21 72.23809524 -21 72.23809524 -21 77 C-20.01 77 -19.02 77 -18 77 C-16.0750353 78.82193842 -14.62464469 80.89235283 -13 83 C-13.33 83.66 -13.66 84.32 -14 85 C-15.70884005 83.37660195 -17.37446717 81.70680947 -19 80 C-19 79.34 -19 78.68 -19 78 C-22.96 80.31 -26.92 82.62 -31 85 C-30.53564868 91.68665895 -29.49804664 96.80918877 -27 103 C-27 103.99 -27 104.98 -27 106 C-24.28775382 104.38731308 -21.62647188 102.75098126 -19 101 C-20.5830577 105.2742558 -23.50568404 107.26531794 -27 110 C-27.66 108.35 -28.32 106.7 -29 105 C-29 107.64 -29 110.28 -29 113 C-28.01 113.495 -28.01 113.495 -27 114 C-26.74863281 113.42121094 -26.49726562 112.84242188 -26.23828125 112.24609375 C-24.84407086 109.71716323 -23.26209642 108.0656954 -21.1875 106.0625 C-18.94515316 103.88834618 -16.7489651 101.72914656 -14.625 99.4375 C-8.56698526 93.8122006 -1.59487868 89.254948 6 86 C6.66 86.33 7.32 86.66 8 87 C7.071875 87.515625 6.14375 88.03125 5.1875 88.5625 C1.87978122 90.46224887 -1.38271514 92.42807311 -4.625 94.4375 C-5.97464844 95.27087891 -5.97464844 95.27087891 -7.3515625 96.12109375 C-10.2462021 98.1746655 -12.546541 100.43869665 -15 103 C-15.85980469 103.84820312 -16.71960938 104.69640625 -17.60546875 105.5703125 C-18.45753906 106.41335937 -19.30960938 107.25640625 -20.1875 108.125 C-21.04730469 108.97320312 -21.90710938 109.82140625 -22.79296875 110.6953125 C-25.12061421 112.99149995 -25.12061421 112.99149995 -27 116 C-29.28515625 117.39453125 -29.28515625 117.39453125 -32.0625 118.8125 C-35.68619061 120.71129508 -39.05629314 122.67352363 -42.375 125.0625 C-49.91624296 130.19379458 -58.77876857 134.15265393 -68 133 C-71.95522332 132.19097705 -72.87950864 131.15138658 -75.4375 127.9375 C-77.45025828 124.04183882 -76.96675366 121.23091382 -75.75390625 117.12109375 C-70.5951097 102.60696668 -56.43017586 92.52486071 -43.0625 85.8125 C-41.7154463 85.19263626 -40.36426056 84.5810145 -39 84 C-39.23783203 83.10087891 -39.23783203 83.10087891 -39.48046875 82.18359375 C-51.02519363 37.34413745 -51.02519363 37.34413745 -45 26 C-43.23291769 23.09814599 -41.2357904 20.55518902 -39 18 C-38.36191406 17.2678125 -37.72382812 16.535625 -37.06640625 15.78125 C-28.2921323 6.37909223 -13.44915362 -5.87738603 0 0 Z M8.75 50.625 C6.64002415 52.9471241 6.64002415 52.9471241 7.25 56.25 C7.4975 57.1575 7.745 58.065 8 59 C11.48809191 58.22969878 11.48809191 58.22969878 15 57 C16.2077558 53.37673261 15.54311128 52.35853631 14 49 C10.94276455 48.70725472 10.94276455 48.70725472 8.75 50.625 Z M-40 56 C-38.86690302 64.68707682 -37.31623271 72.86015607 -34 81 C-30.37 79.35 -26.74 77.7 -23 76 C-25.10747897 67.57008413 -32.2272324 61.13739201 -39 56 C-39.33 56 -39.66 56 -40 56 Z M-27 61 C-25.63629701 63.99220268 -24.05091917 66.29026529 -21.875 68.75 C-21.33617187 69.36359375 -20.79734375 69.9771875 -20.2421875 70.609375 C-19.83226562 71.06828125 -19.42234375 71.5271875 -19 72 C-17.68 71.67 -16.36 71.34 -15 71 C-14.95489639 68.62102997 -14.95489639 68.62102997 -16 66 C-19.19675428 63.44259658 -22.9438528 61.64898355 -27 61 Z M-15 76 C-14.34 76.66 -13.68 77.32 -13 78 C-13 77.34 -13 76.68 -13 76 C-13.66 76 -14.32 76 -15 76 Z M-63 105 C-65.30247192 107.51805918 -67.27280977 110.05928207 -69 113 C-69.57814453 113.92425781 -69.57814453 113.92425781 -70.16796875 114.8671875 C-71.26963344 117.69117304 -70.98135362 119.7566296 -70.625 122.75 C-70.51414062 123.73484375 -70.40328125 124.7196875 -70.2890625 125.734375 C-70.19367188 126.48203125 -70.09828125 127.2296875 -70 128 C-58.13383963 130.07186927 -49.62651061 125.56755083 -39.8125 119 C-38.27529297 117.9790625 -38.27529297 117.9790625 -36.70703125 116.9375 C-33.58599233 114.74017592 -33.58599233 114.74017592 -31 112 C-30.3990846 105.99084597 -31.43755256 102.51911756 -34 97 C-34.7715545 94.34865817 -35.38555527 91.6941038 -36 89 C-45.52716215 89 -56.04483176 98.92594472 -63 105 Z " fill="#9F9DAE" transform="translate(94,23)"/>
<path d="M0 0 C4.06269878 3.85956384 4.90026945 6.96596069 5.16796875 12.42578125 C5.17763672 14.34970703 5.17763672 14.34970703 5.1875 16.3125 C5.20167969 17.58738281 5.21585938 18.86226562 5.23046875 20.17578125 C4.80105802 27.30108819 2.76881009 31.77578273 -1.5 37.4375 C-4.97699143 42.18982254 -7.19292924 46.11991303 -8 52 C-9.65 51.67 -11.3 51.34 -13 51 C-12.74412595 52.77305664 -12.46972261 54.54344608 -12.1875 56.3125 C-12.03667969 57.29863281 -11.88585937 58.28476563 -11.73046875 59.30078125 C-10.95980166 62.14854041 -10.39115319 63.30869652 -8 65 C-3.7740424 64.71826949 0.02727713 63.4188296 4 62 C3.67 61.34 3.34 60.68 3 60 C2.58745847 56.28712626 2.50650888 52.70666663 3 49 C5.62289121 45.93996026 8.0174085 44.59001356 12 44 C10.31804868 45.76604889 9.0023145 46.99880969 6.8125 48.125 C4.56482506 50.45018097 4.71819244 51.33867853 4.6875 54.5 C4.77755178 57.34374032 5.0880791 59.2642373 6 62 C8.64 61.67 11.28 61.34 14 61 C10.89459074 59.78918149 10.89459074 59.78918149 7 60 C5.50702788 57.01405576 5.88244772 54.29146376 6 51 C7 49 7 49 8.84765625 48.3671875 C10.8984375 47.91145833 12.94921875 47.45572917 15 47 C15.99 49.97 16.98 52.94 18 56 C21.96 56.33 25.92 56.66 30 57 C28 59 28 59 25.9765625 59.0546875 C24.81253906 58.96574219 24.81253906 58.96574219 23.625 58.875 C19.93701456 58.66973364 19.93701456 58.66973364 17.0625 60.8125 C16.0415625 61.8953125 16.0415625 61.8953125 15 63 C12.82421875 63.7578125 12.82421875 63.7578125 10.25 64.4375 C5.18048641 65.79137603 1.26358104 67.98691061 -3 71 C-2.67 71.66 -2.34 72.32 -2 73 C-1.64705882 79.47058824 -1.64705882 79.47058824 -4 83 C-3.98839844 82.40832031 -3.97679687 81.81664063 -3.96484375 81.20703125 C-3.91668485 76.98968723 -3.97005439 73.11978244 -5 69 C-5 68.67 -5 68.34 -5 68 C-5.556875 67.9175 -6.11375 67.835 -6.6875 67.75 C-9 67 -9 67 -11.3125 65.125 C-14.44435328 62.64865089 -17.29719937 61.45207868 -21 60 C-19.02 59.505 -19.02 59.505 -17 59 C-17.2165625 58.16082031 -17.433125 57.32164063 -17.65625 56.45703125 C-19.50003978 48.49288371 -20.30120639 40.93433895 -20.3125 32.75 C-20.31765625 31.83323486 -20.3228125 30.91646973 -20.328125 29.97192383 C-20.25922436 23.38883654 -20.25922436 23.38883654 -18 20 C-15.375 19.8125 -15.375 19.8125 -13 20 C-13.16298584 20.54817383 -13.32597168 21.09634766 -13.49389648 21.66113281 C-14.06803556 24.31441423 -14.11273652 26.70742678 -14.09765625 29.421875 C-14.09282227 30.95908203 -14.09282227 30.95908203 -14.08789062 32.52734375 C-14.07951172 33.59082031 -14.07113281 34.65429688 -14.0625 35.75 C-14.05798828 36.82894531 -14.05347656 37.90789063 -14.04882812 39.01953125 C-14.03705727 41.67974383 -14.02061399 44.33984365 -14 47 C-13.58049072 46.28384521 -13.16098145 45.56769043 -12.72875977 44.82983398 C-10.05706545 40.28173426 -7.31099638 36.11020241 -4 32 C-0.25368524 25.33988488 1.19425717 18.50396783 -0.44921875 10.9296875 C-0.92201566 9.27322175 -1.45526009 7.63421973 -2 6 C-9.37129228 4.23729967 -15.40479705 6.0525984 -22 9.625 C-34.55954167 19.09572929 -34.55954167 19.09572929 -41.546875 32.6484375 C-41.71559648 34.34061466 -41.83705698 36.03868507 -41.89453125 37.73828125 C-41.99806431 39.95849013 -42.39041326 41.86888475 -43 44 C-45.31755995 39.6932011 -46.40209309 35.91790781 -46 31 C-42.11934709 20.44734736 -32.1394104 11.96385255 -23 6 C-22.13375 5.01 -22.13375 5.01 -21.25 4 C-15.12641031 -1.44319083 -7.58405832 -3.57534178 0 0 Z M8.75 50.625 C6.64002415 52.9471241 6.64002415 52.9471241 7.25 56.25 C7.4975 57.1575 7.745 58.065 8 59 C11.48809191 58.22969878 11.48809191 58.22969878 15 57 C16.2077558 53.37673261 15.54311128 52.35853631 14 49 C10.94276455 48.70725472 10.94276455 48.70725472 8.75 50.625 Z " fill="#E7E7EB" transform="translate(94,23)"/>
<path d="M0 0 C4.39413025 0 6.57633985 0.68649149 10.125 3.3125 C15.72299695 9.56558169 17.78802756 18.13907922 19.875 26.0625 C21.21593083 31.00889795 21.21593083 31.00889795 25.3125 33.9375 C27.1378125 34.4634375 27.1378125 34.4634375 29 35 C30.92306806 36.46500668 32.6607179 38.04114158 34.421875 39.6953125 C36.08244886 41.22790359 36.08244886 41.22790359 39 42 C39.09706112 35.88514973 38.77040851 30.06696699 38 24 C39.32 23.67 40.64 23.34 42 23 C42.99 26.63 43.98 30.26 45 34 C47.475 33.505 47.475 33.505 50 33 C50.33 27.72 50.66 22.44 51 17 C52.32 16.67 53.64 16.34 55 16 C55.928125 17.4540625 55.928125 17.4540625 56.875 18.9375 C58.65678846 22.02835362 58.65678846 22.02835362 61 23 C63.37402501 23.07116382 65.75000677 23.08409085 68.125 23.0625 C69.40632813 23.05347656 70.68765625 23.04445313 72.0078125 23.03515625 C72.99523437 23.02355469 73.98265625 23.01195313 75 23 C75 23.99 75 24.98 75 26 C73 28 73 28 69.3046875 28.1953125 C67.82799892 28.182009 66.35137642 28.15814835 64.875 28.125 C64.12089844 28.11597656 63.36679688 28.10695313 62.58984375 28.09765625 C60.72642746 28.0740687 58.86317407 28.03819719 57 28 C56.81824219 28.54269531 56.63648438 29.08539063 56.44921875 29.64453125 C56.19785156 30.35996094 55.94648438 31.07539062 55.6875 31.8125 C55.44386719 32.52019531 55.20023438 33.22789063 54.94921875 33.95703125 C53.89991138 36.21541706 52.97290183 37.48238321 51 39 C47.3125 39.1875 47.3125 39.1875 44 39 C43.79375 39.94875 43.5875 40.8975 43.375 41.875 C42 45 42 45 39.1875 46.5625 C36 47 36 47 33.125 45.625 C32.42375 45.08875 31.7225 44.5525 31 44 C32.98 43.505 32.98 43.505 35 43 C33.81263216 41.7915368 32.59903214 40.60881166 31.375 39.4375 C30.70210937 38.77621094 30.02921875 38.11492188 29.3359375 37.43359375 C26.98832144 35.67390791 26.98832144 35.67390791 23.7265625 36.28515625 C22.82679688 36.52105469 21.92703125 36.75695313 21 37 C20.8141333 36.34515625 20.6282666 35.6903125 20.43676758 35.015625 C19.57480286 32.00658454 18.6938211 29.00342553 17.8125 26 C17.37454102 24.45505859 17.37454102 24.45505859 16.92773438 22.87890625 C14.53472027 14.79926724 11.62916836 6.49925314 4 2 C1.73575649 2.12563582 1.73575649 2.12563582 0 3 C0.72724594 8.52706913 2.33445973 13.69960141 4 19 C4.66 17.68 5.32 16.36 6 15 C6.69906942 16.59915881 7.38389468 18.20455045 8.0625 19.8125 C8.44535156 20.70582031 8.82820313 21.59914063 9.22265625 22.51953125 C10 25 10 25 9 28 C8.34 25.69 7.68 23.38 7 21 C6.34 21 5.68 21 5 21 C5 22.65 5 24.3 5 26 C3.11022098 23.16533147 2.11904393 20.8160237 1 17.625 C0.01101747 14.82030735 -0.97709814 12.05388211 -2.140625 9.31640625 C-3.20712267 6.44171026 -2.93685743 4.88864375 -2 2 C-1.34 1.34 -0.68 0.68 0 0 Z " fill="#9F9DAD" transform="translate(112,20)"/>
<path d="M0 0 C0.33 0 0.66 0 1 0 C1.08636719 0.59167969 1.17273437 1.18335938 1.26171875 1.79296875 C2.25996943 7.40698403 3.41591604 10.31280204 8 14 C8.88558594 14.73863281 8.88558594 14.73863281 9.7890625 15.4921875 C14.51190914 19.27422804 19.38298101 21.78959901 25 24 C25 24.66 25 25.32 25 26 C25.99 26.185625 26.98 26.37125 28 26.5625 C32.93404907 27.94484095 36.60094094 31.25662068 40 35 C40 35.66 40 36.32 40 37 C38.68 37 37.36 37 36 37 C35.67 36.01 35.34 35.02 35 34 C35.13277344 34.56847656 35.26554687 35.13695312 35.40234375 35.72265625 C36.4884758 40.47151097 37.38312382 45.16780324 38 50 C38.66 50 39.32 50 40 50 C40.495 54.455 40.495 54.455 41 59 C40.35933594 59.4125 39.71867187 59.825 39.05859375 60.25 C33.07146439 64.24736804 28.47145289 68.38231172 24 74 C23.02273169 75.1682573 22.04376144 76.33509466 21.0625 77.5 C20.381875 78.325 19.70125 79.15 19 80 C17.515 79.505 17.515 79.505 16 79 C16 76.03 16 73.06 16 70 C18.51083114 71.25541557 18.87125446 72.50063488 20 75 C23.89311167 71.36078692 26.10308615 68.97939886 28 64 C29.09584021 62.7219798 30.20093852 61.45187038 31.3125 60.1875 C33.59550229 57.32585023 33.59550229 57.32585023 33.828125 53.8125 C32.75082021 50.82242956 31.64841196 48.63908229 29.37109375 46.39453125 C28 45 28 45 28 43 C27.01 43 26.02 43 25 43 C24.731875 42.236875 24.46375 41.47375 24.1875 40.6875 C23.04199033 38.09503074 22.00288478 36.91184456 20 35 C20 34.34 20 33.68 20 33 C19.34 33 18.68 33 18 33 C18 32.34 18 31.68 18 31 C22.21564117 32.56134858 24.19425533 35.61871796 27 39 C28.485 39.495 28.485 39.495 30 40 C31.23867161 42.61497339 32.08503983 45.25511949 33 48 C33.66 48 34.32 48 35 48 C34.505 44.04 34.505 44.04 34 40 C33.34 40 32.68 40 32 40 C31.67 37.03 31.34 34.06 31 31 C28.44225544 29.82181449 25.87965758 28.65734345 23.3125 27.5 C22.59126953 27.16613281 21.87003906 26.83226563 21.12695312 26.48828125 C17.15696807 24.71175826 14.39771865 23.87252989 10 24 C7.1875 21.5 7.1875 21.5 5 19 C5.144375 20.27875 5.28875 21.5575 5.4375 22.875 C5.99814645 27.91280884 6.50501531 32.95536879 7 38 C3.39192783 34.39192783 3.10662426 28.86441254 2 24 C1.68482422 22.75089844 1.68482422 22.75089844 1.36328125 21.4765625 C-0.30958621 14.33424896 -0.18945397 7.30450311 0 0 Z " fill="#6E6989" transform="translate(48,57)"/>
<path d="M0 0 C3.14691655 2.87183643 4.24546131 5.05065168 4.4609375 9.21484375 C4.45301901 10.7893032 4.42381751 12.36377763 4.375 13.9375 C4.37371094 14.72318359 4.37242188 15.50886719 4.37109375 16.31835938 C4.26994734 23.03335688 2.75195171 28.13801968 -0.8125 33.875 C-1.33714844 34.7309375 -1.86179688 35.586875 -2.40234375 36.46875 C-3.42097743 38.08262439 -4.45348438 39.6878828 -5.50390625 41.28125 C-5.95636719 41.9721875 -6.40882812 42.663125 -6.875 43.375 C-7.28492188 43.98085937 -7.69484375 44.58671875 -8.1171875 45.2109375 C-9.29500548 47.26533973 -9.29500548 47.26533973 -9 51 C-9.99 50.67 -10.98 50.34 -12 50 C-12.73316894 45.8759247 -12.57027775 43.91988858 -10.32421875 40.296875 C-8.92549149 38.42508642 -7.49911461 36.57357007 -6.04296875 34.74609375 C-0.96604519 27.92185424 0.6846417 21.43860698 0 13 C-0.52348747 10.58740557 -1.21737652 8.34787043 -2 6 C-9.37129228 4.23729967 -15.40479705 6.0525984 -22 9.625 C-34.55954167 19.09572929 -34.55954167 19.09572929 -41.546875 32.6484375 C-41.71559648 34.34061466 -41.83705698 36.03868507 -41.89453125 37.73828125 C-41.99806431 39.95849013 -42.39041326 41.86888475 -43 44 C-45.31755995 39.6932011 -46.40209309 35.91790781 -46 31 C-42.11934709 20.44734736 -32.1394104 11.96385255 -23 6 C-22.13375 5.01 -22.13375 5.01 -21.25 4 C-15.33466594 -1.25807472 -7.32532593 -3.89068867 0 0 Z " fill="#CCCBD4" transform="translate(94,23)"/>
<path d="M0 0 C0 1.32 0 2.64 0 4 C-0.53625 4.1959375 -1.0725 4.391875 -1.625 4.59375 C-7.72136464 6.9199944 -13.53053229 9.70076908 -19.33984375 12.65649414 C-24.12273807 15.08268788 -28.94661173 17.4004968 -33.80371094 19.67431641 C-41.89399947 23.46453307 -49.79307479 27.42244773 -57.53295898 31.88647461 C-61.31739831 34.06806975 -65.127733 36.09540533 -69.0625 38 C-74.63781477 40.70713358 -79.87501437 43.87279381 -85.10180664 47.19335938 C-86.69976378 48.18713593 -88.34663063 49.10142969 -90 50 C-90.66 49.67 -91.32 49.34 -92 49 C-89.03 47.02 -86.06 45.04 -83 43 C-83.99 42.67 -84.98 42.34 -86 42 C-78.55356439 37.37444941 -70.89510862 33.20397648 -63.140625 29.12695312 C-60.88287754 27.93833973 -58.62876634 26.74301843 -56.375 25.546875 C-46.90856025 20.53159386 -37.39090973 15.64022139 -27.78857422 10.890625 C-26.08416759 10.04191146 -24.38755619 9.17759654 -22.69140625 8.3125 C-6.378125 0 -6.378125 0 0 0 Z " fill="#CBCAD2" transform="translate(230,39)"/>
<path d="M0 0 C4.83541446 0.76671477 7.88761869 3.33961476 11 7 C15.76465719 15.60322608 18.19919456 25.60836302 21 35 C21.72574219 34.75378906 22.45148438 34.50757813 23.19921875 34.25390625 C26 34 26 34 28.45703125 35.65234375 C29.23433594 36.40644531 30.01164062 37.16054688 30.8125 37.9375 C31.60269531 38.68902344 32.39289063 39.44054688 33.20703125 40.21484375 C34.09455078 41.09849609 34.09455078 41.09849609 35 42 C31.30741897 43.23086034 30.41793707 42.66728638 27 41 C25.65421438 40.01682208 24.31874676 39.01915885 23 38 C22.80563509 40.45796853 22.6192258 42.91609294 22.4375 45.375 C22.38142578 46.07367188 22.32535156 46.77234375 22.26757812 47.4921875 C21.88500096 51.36528865 21.88500096 51.36528865 23 55 C23.06950541 56.54023996 23.08452357 58.08334988 23.0625 59.625 C23.05347656 60.44226563 23.04445312 61.25953125 23.03515625 62.1015625 C23.02355469 62.72804687 23.01195312 63.35453125 23 64 C22.34 64 21.68 64 21 64 C19.68 60.7 18.36 57.4 17 54 C15.35 54.99 13.7 55.98 12 57 C12.309375 56.4225 12.61875 55.845 12.9375 55.25 C14.48555177 51.97177273 15.34337142 50.09223171 14.22265625 46.52734375 C13.83980469 45.67269531 13.45695312 44.81804687 13.0625 43.9375 C11 39.28813559 11 39.28813559 11 36 C11.66 36 12.32 36 13 36 C13.99 38.97 14.98 41.94 16 45 C16.66 45 17.32 45 18 45 C15.80986433 23.36011178 15.80986433 23.36011178 5 5 C4.01 4.67 3.02 4.34 2 4 C2.61512818 9.00890086 3.2717552 14.00632136 4 19 C0.99624635 17.49812318 0.86738789 15.37277281 -0.1875 12.25 C-0.73470703 10.67992187 -0.73470703 10.67992187 -1.29296875 9.078125 C-2.02368528 5.89688397 -1.96082232 4.08796074 -1 1 C-0.67 0.67 -0.34 0.34 0 0 Z " fill="#B7B4C4" transform="translate(113,21)"/>
<path d="M0 0 C0.66 0.33 1.32 0.66 2 1 C1.3709375 1.4846875 0.741875 1.969375 0.09375 2.46875 C-14.48922119 13.45638945 -14.48922119 13.45638945 -21.4765625 29.578125 C-22.15091135 41.71936192 -19.05757304 53.34381597 -16 65 C-16.144375 64.11957031 -16.28875 63.23914063 -16.4375 62.33203125 C-16.623125 61.17058594 -16.80875 60.00914063 -17 58.8125 C-17.2784375 57.08966797 -17.2784375 57.08966797 -17.5625 55.33203125 C-17.93489477 52.49584607 -18.08596021 49.85280436 -18 47 C-16.66536458 48.26953125 -15.33072917 49.5390625 -13.99609375 50.80859375 C-11.13724524 52.51495147 -8.28485514 52.55081835 -5 53 C-2.53131315 53.82901705 -0.09126976 54.74821411 2.3125 55.75 C4.13201172 56.48476562 4.13201172 56.48476562 5.98828125 57.234375 C9 59 9 59 10.44140625 61.52734375 C11.08122687 64.35955668 10.79191019 66.22831432 10 69 C10.66 69 11.32 69 12 69 C12.495 72.96 12.495 72.96 13 77 C12.34 77 11.68 77 11 77 C8.25624329 74.04518508 8 73.22528092 8 69 C7.40445313 68.9071875 6.80890625 68.814375 6.1953125 68.71875 C3.49123431 67.83342903 2.61309813 66.72039762 0.875 64.5 C-1.19887681 61.8119616 -1.19887681 61.8119616 -4 60 C-4.33 60.66 -4.66 61.32 -5 62 C-5.2475 61.38125 -5.495 60.7625 -5.75 60.125 C-7.20628639 57.64931313 -8.37812506 57.04874998 -11 56 C-11 55.34 -11 54.68 -11 54 C-12.32 53.34 -13.64 52.68 -15 52 C-14.34 57.28 -13.68 62.56 -13 68 C-13.66 68 -14.32 68 -15 68 C-14.649375 69.216875 -14.29875 70.43375 -13.9375 71.6875 C-12.48538012 77.68676901 -12.48538012 77.68676901 -14 81 C-16.9375 82.875 -16.9375 82.875 -20 84 C-20.66 83.67 -21.32 83.34 -22 83 C-19.69 81.68 -17.38 80.36 -15 79 C-15.23783203 78.10087891 -15.23783203 78.10087891 -15.48046875 77.18359375 C-27.02519363 32.34413745 -27.02519363 32.34413745 -21 21 C-15.90730287 12.6369127 -8.43518201 4.97459452 0 0 Z M-3 56 C-1.63629701 58.99220268 -0.05091917 61.29026529 2.125 63.75 C2.66382813 64.36359375 3.20265625 64.9771875 3.7578125 65.609375 C4.16773438 66.06828125 4.57765625 66.5271875 5 67 C6.32 66.67 7.64 66.34 9 66 C9.04510361 63.62102997 9.04510361 63.62102997 8 61 C4.80324572 58.44259658 1.0561472 56.64898355 -3 56 Z M9 71 C9.66 71.66 10.32 72.32 11 73 C11 72.34 11 71.68 11 71 C10.34 71 9.68 71 9 71 Z " fill="#E2E1E7" transform="translate(70,28)"/>
<path d="M0 0 C0.99 0.495 0.99 0.495 2 1 C1.071875 1.515625 0.14375 2.03125 -0.8125 2.5625 C-4.12021878 4.46224887 -7.38271514 6.42807311 -10.625 8.4375 C-11.52476563 8.99308594 -12.42453125 9.54867187 -13.3515625 10.12109375 C-16.2462021 12.1746655 -18.546541 14.43869665 -21 17 C-21.85980469 17.84820312 -22.71960938 18.69640625 -23.60546875 19.5703125 C-24.45753906 20.41335937 -25.30960938 21.25640625 -26.1875 22.125 C-27.04730469 22.97320312 -27.90710938 23.82140625 -28.79296875 24.6953125 C-31.12061421 26.99149995 -31.12061421 26.99149995 -33 30 C-35.28515625 31.39453125 -35.28515625 31.39453125 -38.0625 32.8125 C-41.74144253 34.7455037 -45.21538356 36.74969402 -48.625 39.125 C-52.77627533 41.94965593 -57.12738063 44.64908259 -62 46 C-63.96875 45.625 -63.96875 45.625 -66 45 C-68.35621394 44.75051852 -70.71189218 44.56062368 -73.07421875 44.37890625 C-74.02748047 44.19134766 -74.02748047 44.19134766 -75 44 C-75.33 43.34 -75.66 42.68 -76 42 C-74.0509375 42.0928125 -74.0509375 42.0928125 -72.0625 42.1875 C-62.19071307 42.1875 -53.7584275 37.32004863 -45.75 31.9375 C-44.71359375 31.24527344 -43.6771875 30.55304688 -42.609375 29.83984375 C-39.99100693 28.10462584 -39.99100693 28.10462584 -38 26 C-37.79476114 23.66032987 -37.79476114 23.66032987 -37.9375 21.0625 C-38.04422257 17.91186403 -38.0099955 16.02998649 -37 13 C-37.495 12.01 -37.495 12.01 -38 11 C-38.04022391 8.6670134 -38.04320247 6.33293334 -38 4 C-37.67 4 -37.34 4 -37 4 C-36.32815382 6.10251861 -35.66269032 8.20707763 -35 10.3125 C-34.62875 11.48425781 -34.2575 12.65601562 -33.875 13.86328125 C-33 17 -33 17 -33 20 C-30.28775382 18.38731308 -27.62647188 16.75098126 -25 15 C-26.5830577 19.2742558 -29.50568404 21.26531794 -33 24 C-33.66 22.35 -34.32 20.7 -35 19 C-35 21.64 -35 24.28 -35 27 C-34.34 27.33 -33.68 27.66 -33 28 C-32.62294922 27.13181641 -32.62294922 27.13181641 -32.23828125 26.24609375 C-30.84407086 23.71716323 -29.26209642 22.0656954 -27.1875 20.0625 C-24.94515316 17.88834618 -22.7489651 15.72914656 -20.625 13.4375 C-14.56698526 7.8122006 -7.59487868 3.254948 0 0 Z " fill="#E4E3E8" transform="translate(100,109)"/>
<path d="M0 0 C0.33 0 0.66 0 1 0 C1.08636719 0.59167969 1.17273437 1.18335938 1.26171875 1.79296875 C2.25996943 7.40698403 3.41591604 10.31280204 8 14 C8.88558594 14.73863281 8.88558594 14.73863281 9.7890625 15.4921875 C14.51190914 19.27422804 19.38298101 21.78959901 25 24 C25 24.66 25 25.32 25 26 C25.99 26.185625 26.98 26.37125 28 26.5625 C32.93404907 27.94484095 36.60094094 31.25662068 40 35 C40 35.66 40 36.32 40 37 C38.68 37 37.36 37 36 37 C35.67 36.01 35.34 35.02 35 34 C34.01 33.67 33.02 33.34 32 33 C31.67 32.34 31.34 31.68 31 31 C28.43144126 29.70399205 25.8858247 28.51657197 23.25 27.375 C22.53328125 27.05015625 21.8165625 26.7253125 21.078125 26.390625 C17.1334956 24.66484964 14.34764663 23.889933 10 24 C7.1875 21.5 7.1875 21.5 5 19 C5.144375 20.27875 5.28875 21.5575 5.4375 22.875 C5.99814645 27.91280884 6.50501531 32.95536879 7 38 C3.39192783 34.39192783 3.10662426 28.86441254 2 24 C1.68482422 22.75089844 1.68482422 22.75089844 1.36328125 21.4765625 C-0.30958621 14.33424896 -0.18945397 7.30450311 0 0 Z " fill="#615D7E" transform="translate(48,57)"/>
<path d="M0 0 C4.39413025 0 6.57633985 0.68649149 10.125 3.3125 C15.72299695 9.56558169 17.78802756 18.13907922 19.875 26.0625 C21.21593083 31.00889795 21.21593083 31.00889795 25.3125 33.9375 C27.1378125 34.4634375 27.1378125 34.4634375 29 35 C30.92306806 36.46500668 32.6607179 38.04114158 34.421875 39.6953125 C36.08244886 41.22790359 36.08244886 41.22790359 39 42 C39.09706112 35.88514973 38.77040851 30.06696699 38 24 C39.32 23.67 40.64 23.34 42 23 C43.35439668 25.70879335 43.06501451 28.00933268 43 31 C42.34 30.34 41.68 29.68 41 29 C41.495 36.92 41.495 36.92 42 45 C36 47 36 47 33.125 45.625 C32.42375 45.08875 31.7225 44.5525 31 44 C32.98 43.505 32.98 43.505 35 43 C33.81263216 41.7915368 32.59903214 40.60881166 31.375 39.4375 C30.70210937 38.77621094 30.02921875 38.11492188 29.3359375 37.43359375 C26.98832144 35.67390791 26.98832144 35.67390791 23.7265625 36.28515625 C22.82679688 36.52105469 21.92703125 36.75695313 21 37 C20.8141333 36.34515625 20.6282666 35.6903125 20.43676758 35.015625 C19.57480286 32.00658454 18.6938211 29.00342553 17.8125 26 C17.37454102 24.45505859 17.37454102 24.45505859 16.92773438 22.87890625 C14.53472027 14.79926724 11.62916836 6.49925314 4 2 C1.73575649 2.12563582 1.73575649 2.12563582 0 3 C0.72724594 8.52706913 2.33445973 13.69960141 4 19 C4.66 17.68 5.32 16.36 6 15 C6.69906942 16.59915881 7.38389468 18.20455045 8.0625 19.8125 C8.44535156 20.70582031 8.82820313 21.59914063 9.22265625 22.51953125 C10 25 10 25 9 28 C8.34 25.69 7.68 23.38 7 21 C6.34 21 5.68 21 5 21 C5 22.65 5 24.3 5 26 C3.11022098 23.16533147 2.11904393 20.8160237 1 17.625 C0.01101747 14.82030735 -0.97709814 12.05388211 -2.140625 9.31640625 C-3.20712267 6.44171026 -2.93685743 4.88864375 -2 2 C-1.34 1.34 -0.68 0.68 0 0 Z " fill="#E7E6EA" transform="translate(112,20)"/>
<path d="M0 0 C2.625 -0.1875 2.625 -0.1875 5 0 C4.83773926 0.52835449 4.67547852 1.05670898 4.50830078 1.60107422 C3.87837663 4.57400157 3.87022082 7.34298815 3.8671875 10.3828125 C3.86589844 11.63320313 3.86460938 12.88359375 3.86328125 14.171875 C3.86714844 15.47640625 3.87101562 16.7809375 3.875 18.125 C3.87113281 19.40632813 3.86726563 20.68765625 3.86328125 22.0078125 C3.8705152 29.06814561 4.09782614 35.9942809 5 43 C-0.75 41.25 -0.75 41.25 -3 39 C-1.68 39 -0.36 39 1 39 C0.7834375 38.16082031 0.566875 37.32164063 0.34375 36.45703125 C-1.50003978 28.49288371 -2.30120639 20.93433895 -2.3125 12.75 C-2.31765625 11.83323486 -2.3228125 10.91646973 -2.328125 9.97192383 C-2.25922436 3.38883654 -2.25922436 3.38883654 0 0 Z " fill="#BCBAC7" transform="translate(76,43)"/>
<path d="M0 0 C-0.99 0 -1.98 0 -3 0 C-3 0.66 -3 1.32 -3 2 C0.96 1.34 4.92 0.68 9 0 C9.66 0.99 10.32 1.98 11 3 C9.576875 2.9071875 9.576875 2.9071875 8.125 2.8125 C-3.33023357 2.83573577 -11.51871402 9.1278514 -19.58984375 16.578125 C-25.407609 22.42417761 -28.61180434 27.37764267 -28.89453125 35.73828125 C-28.99806431 37.95849013 -29.39041326 39.86888475 -30 42 C-32.31755995 37.6932011 -33.40209309 33.91790781 -33 29 C-29.12526322 18.46343507 -19.14305002 9.93787467 -10 4 C-8.64802142 2.68557638 -7.30973998 1.3565164 -6 0 C-3.50907189 -1.24546405 -2.58919267 -0.7767578 0 0 Z " fill="#B4B2BF" transform="translate(81,25)"/>
<path d="M0 0 C0.19916016 1.06541016 0.19916016 1.06541016 0.40234375 2.15234375 C0.57894531 3.07144531 0.75554687 3.99054688 0.9375 4.9375 C1.11152344 5.85402344 1.28554687 6.77054687 1.46484375 7.71484375 C1.77714988 9.95289844 1.77714988 9.95289844 3 11 C5.32817964 11.36760731 7.6618385 11.70241581 10 12 C10 12.66 10 13.32 10 14 C8.39667209 14.08121924 6.79215974 14.13929134 5.1875 14.1875 C3.84751953 14.23970703 3.84751953 14.23970703 2.48046875 14.29296875 C0 14 0 14 -1.69921875 12.67578125 C-4.2428837 9.39880748 -5 8.30163235 -5 4 C-5.763125 4.33 -6.52625 4.66 -7.3125 5 C-10 6 -10 6 -13 6 C-13 9.63 -13 13.26 -13 17 C-12.05125 16.79375 -11.1025 16.5875 -10.125 16.375 C-8.578125 16.189375 -8.578125 16.189375 -7 16 C-6.34 16.66 -5.68 17.32 -5 18 C-6.89128342 19.89128342 -9.57067726 19.2366852 -12.08984375 19.328125 C-12.72019531 19.21984375 -13.35054688 19.1115625 -14 19 C-16.65691667 15.01462499 -16.85098311 11.68891694 -16 7 C-13.6875 4.625 -13.6875 4.625 -11 3 C-10.484375 2.443125 -9.96875 1.88625 -9.4375 1.3125 C-6.38171895 -1.47756095 -3.74728222 -1.03265397 0 0 Z " fill="#605D7E" transform="translate(114,66)"/>
<path d="M0 0 C0.66 0.33 1.32 0.66 2 1 C1.443125 1.66 0.88625 2.32 0.3125 3 C-0.450625 3.99 -1.21375 4.98 -2 6 C-2.46664063 6.55816406 -2.93328125 7.11632812 -3.4140625 7.69140625 C-7.4217903 13.05370127 -7.25876923 17.13004172 -6.39453125 23.65625 C-6.26433594 24.4296875 -6.13414063 25.203125 -6 26 C-2.37 26.33 1.26 26.66 5 27 C4.34 27.33 3.68 27.66 3 28 C3 28.66 3 29.32 3 30 C-6.37228831 30.31770469 -6.37228831 30.31770469 -10 28 C-12.53772818 24.81157228 -14.0775688 22.86165116 -13.90625 18.75 C-12.97737083 14.16752942 -11.41338196 10.02230327 -9 6 C-8.34 5.67 -7.68 5.34 -7 5 C-7 6.32 -7 7.64 -7 9 C-4.69 6.03 -2.38 3.06 0 0 Z " fill="#D4D3DA" transform="translate(31,126)"/>
<path d="M0 0 C0.99 0.495 0.99 0.495 2 1 C2 1.99 2 2.98 2 4 C3.32 4 4.64 4 6 4 C5.67 3.01 5.34 2.02 5 1 C6.65 0.67 8.3 0.34 10 0 C9.67 0.66 9.34 1.32 9 2 C8.34 2 7.68 2 7 2 C7.32742187 2.68449219 7.65484375 3.36898437 7.9921875 4.07421875 C9.16848212 7.48912059 9.19777146 10.21031284 9.125 13.8125 C9.10695313 14.97394531 9.08890625 16.13539062 9.0703125 17.33203125 C9.04710938 18.21246094 9.02390625 19.09289062 9 20 C14.445 18.515 14.445 18.515 20 17 C20 17.66 20 18.32 20 19 C18.04669132 20.03041513 16.08718472 21.0490893 14.125 22.0625 C13.03445312 22.63097656 11.94390625 23.19945313 10.8203125 23.78515625 C9.42425781 24.38650391 9.42425781 24.38650391 8 25 C7.34 24.67 6.68 24.34 6 24 C6 21.69 6 19.38 6 17 C5.34 17 4.68 17 4 17 C3.32635339 14.91891315 2.66133202 12.8350329 2 10.75 C1.62875 9.58984375 1.2575 8.4296875 0.875 7.234375 C0 4 0 4 0 0 Z M3 6 C3.33 8.31 3.66 10.62 4 13 C4.33 13 4.66 13 5 13 C5 10.69 5 8.38 5 6 C4.34 6 3.68 6 3 6 Z " fill="#9D9BAE" transform="translate(82,90)"/>
<path d="M0 0 C1.875 0.125 1.875 0.125 4 1 C5.625 3.5 5.625 3.5 7 6 C10.00313748 7.50156874 12.79067522 7.09281204 16.125 7.0625 C17.40632813 7.05347656 18.68765625 7.04445313 20.0078125 7.03515625 C21.48894531 7.01775391 21.48894531 7.01775391 23 7 C23 7.99 23 8.98 23 10 C21 12 21 12 17.3046875 12.1953125 C15.82799892 12.182009 14.35137642 12.15814835 12.875 12.125 C12.12089844 12.11597656 11.36679688 12.10695313 10.58984375 12.09765625 C8.72642746 12.0740687 6.86317407 12.03819719 5 12 C4.80664062 12.56589844 4.61328125 13.13179687 4.4140625 13.71484375 C4.15367187 14.44832031 3.89328125 15.18179688 3.625 15.9375 C3.36976563 16.66839844 3.11453125 17.39929688 2.8515625 18.15234375 C2 20 2 20 0 21 C0.66 16.71 1.32 12.42 2 8 C3.32 8.66 4.64 9.32 6 10 C8.33203812 10.0777346 10.66839059 10.08967728 13 10 C11.906875 9.731875 10.81375 9.46375 9.6875 9.1875 C4.77083333 7.60416667 4.77083333 7.60416667 3 5 C3 4.01 3 3.02 3 2 C2.34 2 1.68 2 1 2 C0.95101562 3.13179687 0.90203125 4.26359375 0.8515625 5.4296875 C0.77653486 6.91148339 0.70098703 8.393253 0.625 9.875 C0.5940625 10.62136719 0.563125 11.36773437 0.53125 12.13671875 C0.2265625 17.7734375 0.2265625 17.7734375 -2 20 C-2.99 19.67 -3.98 19.34 -5 19 C-4.01 18.34 -3.02 17.68 -2 17 C-1.64208017 14.25105838 -1.44205233 11.69382981 -1.375 8.9375 C-1.10418532 1.10418532 -1.10418532 1.10418532 0 0 Z " fill="#EAE9ED" transform="translate(164,36)"/>
<path d="M0 0 C0.66 0 1.32 0 2 0 C7 5.23809524 7 5.23809524 7 10 C7.99 10 8.98 10 10 10 C11.9249647 11.82193842 13.37535531 13.89235283 15 16 C14.67 16.66 14.34 17.32 14 18 C12.29115995 16.37660195 10.62553283 14.70680947 9 13 C9 12.34 9 11.68 9 11 C7.00977596 12.04164064 5.03304907 13.1091015 3.0625 14.1875 C1.96035156 14.77917969 0.85820313 15.37085937 -0.27734375 15.98046875 C-3.21230304 17.74760025 -3.21230304 17.74760025 -3.87890625 20.73828125 C-3.91886719 21.48464844 -3.95882812 22.23101562 -4 23 C-4.66 22.34 -5.32 21.68 -6 21 C-6 19.68 -6 18.36 -6 17 C-5.34 16.67 -4.68 16.34 -4 16 C-4.639375 15.835 -5.27875 15.67 -5.9375 15.5 C-8 14 -8 14 -8.48828125 12.0859375 C-8.7275978 10.06424845 -8.86893028 8.03158061 -9 6 C-6.77810176 8.22189824 -6.07401108 10.08482708 -5 13 C-3.906875 12.34 -2.81375 11.68 -1.6875 11 C0.93707538 9.41535071 1.8256378 9 5 9 C4.54625 8.2575 4.0925 7.515 3.625 6.75 C2.31359204 4.53069422 1.11719197 2.32032178 0 0 Z " fill="#D3D2DA" transform="translate(66,90)"/>
<path d="M0 0 C0.33 0 0.66 0 1 0 C1.44651423 11.16285574 -2.45410999 18.10441619 -8.50390625 27.28125 C-8.95636719 27.9721875 -9.40882812 28.663125 -9.875 29.375 C-10.28492187 29.98085937 -10.69484375 30.58671875 -11.1171875 31.2109375 C-12.29500548 33.26533973 -12.29500548 33.26533973 -12 37 C-12.99 36.67 -13.98 36.34 -15 36 C-15.73316894 31.8759247 -15.57027775 29.91988858 -13.32421875 26.296875 C-11.92549149 24.42508642 -10.49911461 22.57357007 -9.04296875 20.74609375 C-6.96282666 17.95003278 -5.46792536 15.15349264 -4 12 C-3.34 12 -2.68 12 -2 12 C-1.34 8.04 -0.68 4.08 0 0 Z " fill="#B5B4BF" transform="translate(97,37)"/>
<path d="M0 0 C0.99 2.97 1.98 5.94 3 9 C6.96 9.33 10.92 9.66 15 10 C13 12 13 12 10.9765625 12.0546875 C10.20054688 11.99539062 9.42453125 11.93609375 8.625 11.875 C6.21081913 11.76267731 6.21081913 11.76267731 4 12 C2.64567325 13.31200404 1.31266518 14.64631404 0 16 C-2.27222788 16.49175081 -4.4621585 16.6852321 -6.78125 16.82421875 C-8.95605058 16.99651809 -10.90290124 17.41376557 -13 18 C-12.67 17.34 -12.34 16.68 -12 16 C-11.34 16 -10.68 16 -10 16 C-9.67 15.01 -9.34 14.02 -9 13 C-9 13.66 -9 14.32 -9 15 C-6.36 14.67 -3.72 14.34 -1 14 C-4.10540926 12.78918149 -4.10540926 12.78918149 -8 13 C-9.49297212 10.01405576 -9.11755228 7.29146376 -9 4 C-8 2 -8 2 -5.0625 0.875 C-2 0 -2 0 0 0 Z M-6.25 3.625 C-8.35997585 5.9471241 -8.35997585 5.9471241 -7.75 9.25 C-7.5025 10.1575 -7.255 11.065 -7 12 C-3.51190809 11.22969878 -3.51190809 11.22969878 0 10 C1.2077558 6.37673261 0.54311128 5.35853631 -1 2 C-4.05723545 1.70725472 -4.05723545 1.70725472 -6.25 3.625 Z " fill="#D0CFD9" transform="translate(109,70)"/>
<path d="M0 0 C0 1.32 0 2.64 0 4 C-0.53625 4.1959375 -1.0725 4.391875 -1.625 4.59375 C-10.78891394 8.09050664 -19.76555688 12.4465802 -28.2890625 17.3046875 C-30 18 -30 18 -33 17 C-27.72 14.36 -22.44 11.72 -17 9 C-17.66 8.34 -18.32 7.68 -19 7 C-13.32377743 3.21585162 -6.8700904 0 0 0 Z " fill="#C3C2CC" transform="translate(230,39)"/>
<path d="M0 0 C0.33 0 0.66 0 1 0 C1.09796875 0.61488281 1.1959375 1.22976562 1.296875 1.86328125 C2.23001296 6.90705281 2.71948087 9.00363661 7 12 C7.25 15 7.25 15 7 18 C7 18.99 7 19.98 7 21 C6.34 20.34 5.68 19.68 5 19 C5.144375 20.27875 5.28875 21.5575 5.4375 22.875 C5.99814645 27.91280884 6.50501531 32.95536879 7 38 C3.39192783 34.39192783 3.10662426 28.86441254 2 24 C1.68482422 22.75089844 1.68482422 22.75089844 1.36328125 21.4765625 C-0.30958621 14.33424896 -0.18945397 7.30450311 0 0 Z " fill="#75718E" transform="translate(48,57)"/>
<path d="M0 0 C-2.58005983 2.99358859 -5.54324813 4.45566888 -9.0625 6.1875 C-10.12597656 6.71730469 -11.18945312 7.24710938 -12.28515625 7.79296875 C-15 9 -15 9 -17 9 C-17.33 9.99 -17.66 10.98 -18 12 C-22.37128835 15.11936806 -26.60959347 16.53904065 -32 16 C-28.71551486 12.1547491 -24.2114187 10.59295125 -19.71484375 8.5 C-16.76076979 7.13951127 -16.76076979 7.13951127 -15 4 C-10.20628058 1.13335579 -5.64441914 -0.57891478 0 0 Z " fill="#A9A7B6" transform="translate(214,47)"/>
<path d="M0 0 C0.66 0 1.32 0 2 0 C3.65 3.63 5.3 7.26 7 11 C7.33 8.36 7.66 5.72 8 3 C8.33 3 8.66 3 9 3 C9.04898438 3.96679688 9.09796875 4.93359375 9.1484375 5.9296875 C9.58029199 13.44991228 10.21953056 20.65340279 12 28 C11.34 28 10.68 28 10 28 C8.68 24.7 7.36 21.4 6 18 C4.35 18.99 2.7 19.98 1 21 C1.309375 20.4225 1.61875 19.845 1.9375 19.25 C3.48555177 15.97177273 4.34337142 14.09223171 3.22265625 10.52734375 C2.83980469 9.67269531 2.45695312 8.81804687 2.0625 7.9375 C0 3.28813559 0 3.28813559 0 0 Z " fill="#585371" transform="translate(124,57)"/>
<path d="M0 0 C9.32826262 4.92324971 11.77050417 13.89991327 14.76171875 23.42578125 C16.34498855 29.56796978 16.19205262 35.69427246 16 42 C15.34 42 14.68 42 14 42 C13.30300448 40.54618103 12.61766134 39.08677047 11.9375 37.625 C11.55464844 36.81289063 11.17179687 36.00078125 10.77734375 35.1640625 C10.52082031 34.44992188 10.26429687 33.73578125 10 33 C10.33 32.34 10.66 31.68 11 31 C11.99 32.98 12.98 34.96 14 37 C13.34046609 26.31100218 11.13209079 12.86412238 3.25 4.9375 C2.5075 4.298125 1.765 3.65875 1 3 C1.33 5.64 1.66 8.28 2 11 C-1.03333922 7.96666078 -0.6646334 5.2256192 -1 1 C-0.67 0.67 -0.34 0.34 0 0 Z " fill="#EDEDF0" transform="translate(115,24)"/>
<path d="M0 0 C0.886875 0.825 1.77375 1.65 2.6875 2.5 C5.01307407 4.46099476 5.74787194 4.97259478 8.875 5.3125 C9.57625 5.209375 10.2775 5.10625 11 5 C13 9 13 9 15 13 C14.34 13.66 13.68 14.32 13 15 C12.7525 14.38125 12.505 13.7625 12.25 13.125 C10.79371361 10.64931313 9.62187494 10.04874998 7 9 C7 8.34 7 7.68 7 7 C5.68 6.34 4.36 5.68 3 5 C3.66 10.28 4.32 15.56 5 21 C4.01 21.33 3.02 21.66 2 22 C2.04125 21.05125 2.0825 20.1025 2.125 19.125 C2.14141457 15.08701693 1.3398275 11.35230567 0.4375 7.4296875 C-0.0175156 4.90272589 -0.07293779 2.56193992 0 0 Z " fill="#DAD9E1" transform="translate(52,75)"/>
<path d="M0 0 C0.66 0.33 1.32 0.66 2 1 C1.01 1.99 0.02 2.98 -1 4 C-0.01 4.33 0.98 4.66 2 5 C0.25318707 5.98484108 -1.4975851 6.96266187 -3.25 7.9375 C-4.22453125 8.48277344 -5.1990625 9.02804688 -6.203125 9.58984375 C-8.53610409 10.76610835 -10.45350762 11.52101691 -13 12 C-13 11.34 -13 10.68 -13 10 C-13.94875 10.515625 -14.8975 11.03125 -15.875 11.5625 C-16.90625 12.036875 -17.9375 12.51125 -19 13 C-19.66 12.67 -20.32 12.34 -21 12 C-19.03125 10.90625 -19.03125 10.90625 -17.0625 9.8125 C-16.24652344 9.35875 -15.43054688 8.905 -14.58984375 8.4375 C-12.89600917 7.49733239 -11.20075045 6.55972482 -9.50390625 5.625 C-8.71886719 5.191875 -7.93382813 4.75875 -7.125 4.3125 C-6.40570313 3.91675781 -5.68640625 3.52101563 -4.9453125 3.11328125 C-3.25469357 2.14575837 -1.62074617 1.08049745 0 0 Z " fill="#CFCED6" transform="translate(115,97)"/>
<path d="M0 0 C0.66 0.33 1.32 0.66 2 1 C-2.95 3.64 -7.9 6.28 -13 9 C-12.34 9.66 -11.68 10.32 -11 11 C-12.38481328 11.87191947 -13.78345246 12.72190384 -15.1875 13.5625 C-15.96480469 14.03816406 -16.74210938 14.51382813 -17.54296875 15.00390625 C-20.51663188 16.20944536 -21.94521107 15.76369723 -25 15 C-27.75256244 15.84979475 -27.75256244 15.84979475 -30 17 C-26.62654166 13.11619796 -22.93235122 11.22939755 -18.375 9.0625 C-16.94258235 8.36744708 -15.5102906 7.67213463 -14.078125 6.9765625 C-13.38267578 6.64172852 -12.68722656 6.30689453 -11.97070312 5.96191406 C-8.54744626 4.2909983 -5.18515834 2.49992299 -1.8203125 0.71484375 C-1.21960938 0.47894531 -0.61890625 0.24304687 0 0 Z " fill="#DBDAE0" transform="translate(196,53)"/>
<path d="M0 0 C0.99 0 1.98 0 3 0 C4.35439668 2.70879335 4.06501451 5.00933268 4 8 C3.34 7.34 2.68 6.68 2 6 C2.33 11.28 2.66 16.56 3 22 C-3 24 -3 24 -5.875 22.625 C-6.57625 22.08875 -7.2775 21.5525 -8 21 C-5.29120665 19.64560332 -2.99066732 19.93498549 0 20 C0.09526872 14.92958683 0.06928678 9.97559458 -0.5625 4.9375 C-0.706875 3.638125 -0.85125 2.33875 -1 1 C-0.67 0.67 -0.34 0.34 0 0 Z " fill="#D8D6DC" transform="translate(151,43)"/>
<path d="M0 0 C0.66 0.33 1.32 0.66 2 1 C1.54663921 5.87362847 0.2910841 8.39042389 -3 12 C-2.34 12.33 -1.68 12.66 -1 13 C-1.66 13.66 -2.32 14.32 -3 15 C-3.44859375 15.44988281 -3.8971875 15.89976563 -4.359375 16.36328125 C-5.59393394 17.59490076 -6.83456089 18.82044238 -8.078125 20.04296875 C-8.79484375 20.75066406 -9.5115625 21.45835937 -10.25 22.1875 C-10.93578125 22.86167969 -11.6215625 23.53585938 -12.328125 24.23046875 C-14.07449111 25.90798995 -14.07449111 25.90798995 -15 28 C-15.99 27.67 -16.98 27.34 -18 27 C-18 24.03 -18 21.06 -18 18 C-15.48916886 19.25541557 -15.12874554 20.50063488 -14 23 C-10.10688833 19.36078692 -7.89691385 16.97939886 -6 12 C-4.47025923 9.93691718 -2.8797848 7.94328068 -1.2421875 5.96484375 C0.35624819 3.82392938 0.35624819 3.82392938 0 0 Z " fill="#A6A4B3" transform="translate(82,109)"/>
<path d="M0 0 C3.30720398 0.46640056 5.24394291 1.72236121 7.75 3.875 C8.36359375 4.38804688 8.9771875 4.90109375 9.609375 5.4296875 C11 7 11 7 11 10 C10.34 10 9.68 10 9 10 C8.360625 9.195625 7.72125 8.39125 7.0625 7.5625 C5.18964068 4.76279268 5.18964068 4.76279268 2 4 C2.61512818 9.00890086 3.2717552 14.00632136 4 19 C0.99624635 17.49812318 0.86738789 15.37277281 -0.1875 12.25 C-0.73470703 10.67992187 -0.73470703 10.67992187 -1.29296875 9.078125 C-2.02368528 5.89688397 -1.96082232 4.08796074 -1 1 C-0.67 0.67 -0.34 0.34 0 0 Z " fill="#78738D" transform="translate(113,21)"/>
<path d="M0 0 C0.99 0.33 1.98 0.66 3 1 C0.525 2.485 0.525 2.485 -2 4 C-1.34 4.66 -0.68 5.32 0 6 C-5.31979882 10.29676059 -10.1792801 12.31792801 -17 13 C-13.28202865 7.61535183 -9.13068596 5.15480127 -3.328125 2.19921875 C-1.0990949 1.20069957 -1.0990949 1.20069957 0 0 Z " fill="#C0C0CA" transform="translate(129,89)"/>
<path d="M0 0 C3 1 3 1 3.99902344 2.80322266 C4.94616271 5.40221151 5.87349975 8.00115993 6.75 10.625 C7.06638428 11.56891602 7.38276855 12.51283203 7.70874023 13.48535156 C10.2030865 21.5014864 11.06024757 28.75900972 9 37 C8.01 37.495 8.01 37.495 7 38 C6.505 36.515 6.505 36.515 6 35 C6.66 35 7.32 35 8 35 C7.0553358 26.04236067 6.00859206 17.53909216 3 9 C2.43662666 7.29195448 1.87409641 5.58363059 1.3125 3.875 C0.87655299 2.58280836 0.43966502 1.29093133 0 0 Z " fill="#8E8A9E" transform="translate(123,31)"/>
<path d="M0 0 C0.99 0.33 1.98 0.66 3 1 C4.6875 4.5625 4.6875 4.5625 6 8 C9.63 8.33 13.26 8.66 17 9 C16.01 9.495 16.01 9.495 15 10 C15 10.66 15 11.32 15 12 C5.74598317 12.31369549 5.74598317 12.31369549 2 10 C0.08640091 6.62842064 -0.21913264 3.83482114 0 0 Z " fill="#A09DB0" transform="translate(19,144)"/>
<path d="M0 0 C0.66 0.33 1.32 0.66 2 1 C1.39671875 1.38671875 0.7934375 1.7734375 0.171875 2.171875 C-3.93780917 4.84979824 -7.64498227 7.38690398 -11 11 C-14.4352048 13.29013653 -15.985331 13.17842973 -20 13 C-16.50904207 9.0246945 -12.43925015 6.72274091 -7.875 4.1875 C-7.14667969 3.76791016 -6.41835937 3.34832031 -5.66796875 2.91601562 C-3.81494731 1.87647402 -1.91035606 0.92998652 0 0 Z " fill="#A2A0AF" transform="translate(146,81)"/>
<path d="M0 0 C4.21564117 1.56134858 6.19425533 4.61871796 9 8 C9.99 8.33 10.98 8.66 12 9 C13.23867161 11.61497339 14.08503983 14.25511949 15 17 C15.66 17.33 16.32 17.66 17 18 C17 18.99 17 19.98 17 21 C16.34 21 15.68 21 15 21 C13.08152136 18.12228205 11.49920512 15.11373372 10 12 C9.01 12 8.02 12 7 12 C6.731875 11.236875 6.46375 10.47375 6.1875 9.6875 C5.04199033 7.09503074 4.00288478 5.91184456 2 4 C2 3.34 2 2.68 2 2 C1.34 2 0.68 2 0 2 C0 1.34 0 0.68 0 0 Z " fill="#716E8E" transform="translate(66,88)"/>
<path d="M0 0 C0.66 0 1.32 0 2 0 C2.391875 0.78375 2.78375 1.5675 3.1875 2.375 C4.83482653 5.27034542 4.83482653 5.27034542 8.1875 6.3125 C12.28562969 7.05150699 15.84903013 7.14564807 20 7 C17.23159238 9.76840762 15.48286854 9.29949595 11.625 9.3125 C10.48289063 9.32925781 9.34078125 9.34601562 8.1640625 9.36328125 C4.78873096 8.97574318 3.44664409 8.28393624 1 6 C1 8.31 1 10.62 1 13 C0.67 13 0.34 13 0 13 C-0.19658808 11.58456585 -0.38187546 10.16755969 -0.5625 8.75 C-0.66691406 7.96109375 -0.77132812 7.1721875 -0.87890625 6.359375 C-1.00027349 3.99467126 -0.69633257 2.2488963 0 0 Z " fill="#77738D" transform="translate(165,38)"/>
<path d="M0 0 C1.32 0.66 2.64 1.32 4 2 C2.02 2.33 0.04 2.66 -2 3 C-2 6.63 -2 10.26 -2 14 C-1.05125 13.79375 -0.1025 13.5875 0.875 13.375 C1.90625 13.25125 2.9375 13.1275 4 13 C4.66 13.66 5.32 14.32 6 15 C4.10871658 16.89128342 1.42932274 16.2366852 -1.08984375 16.328125 C-1.72019531 16.21984375 -2.35054688 16.1115625 -3 16 C-5.64951495 12.02572757 -5.86959506 8.67723947 -5 4 C-2.5 1.4375 -2.5 1.4375 0 0 Z " fill="#65607F" transform="translate(103,69)"/>
<path d="M0 0 C0.556875 0.226875 1.11375 0.45375 1.6875 0.6875 C0.6975 0.6875 -0.2925 0.6875 -1.3125 0.6875 C-1.3125 1.3475 -1.3125 2.0075 -1.3125 2.6875 C2.6475 2.0275 6.6075 1.3675 10.6875 0.6875 C11.3475 1.6775 12.0075 2.6675 12.6875 3.6875 C11.73875 3.625625 10.79 3.56375 9.8125 3.5 C5.61777788 3.48291356 1.98070834 4.6423124 -1.98046875 5.93359375 C-4.07838252 6.61181378 -6.16794497 7.17970881 -8.3125 7.6875 C-7.3225 6.6975 -6.3325 5.7075 -5.3125 4.6875 C-5.9725 4.0275 -6.6325 3.3675 -7.3125 2.6875 C-2.88173077 -0.38942308 -2.88173077 -0.38942308 0 0 Z " fill="#E1E0E5" transform="translate(79.3125,24.3125)"/>
<path d="M0 0 C0.66 0 1.32 0 2 0 C2.33 2.97 2.66 5.94 3 9 C-3.625 14 -3.625 14 -7 14 C-5 10 -3 6 -1 2 C-0.67 3.32 -0.34 4.64 0 6 C0 4.02 0 2.04 0 0 Z " fill="#6B698D" transform="translate(86,107)"/>
<path d="M0 0 C3.28220895 1.64110448 3.74570789 4.69322988 5 8 C5 8.99 5 9.98 5 11 C5.66 11 6.32 11 7 11 C7.33 10.01 7.66 9.02 8 8 C8.66 8.33 9.32 8.66 10 9 C11.67654729 8.72057545 13.34608154 8.39171753 15 8 C11.81404865 10.63978826 8.69029454 13.10498388 5 15 C4.34 14.67 3.68 14.34 3 14 C3.33 13.34 3.66 12.68 4 12 C3.45783893 9.765028 3.45783893 9.765028 2.5625 7.375 C2.13130859 6.14910156 2.13130859 6.14910156 1.69140625 4.8984375 C1.46324219 4.27195312 1.23507813 3.64546875 1 3 C-0.65 3.66 -2.3 4.32 -4 5 C-2.68 3.35 -1.36 1.7 0 0 Z " fill="#E9E8EC" transform="translate(129,74)"/>
<path d="M0 0 C0.556875 0.226875 1.11375 0.45375 1.6875 0.6875 C0.6975 1.3475 -0.2925 2.0075 -1.3125 2.6875 C-0.3225 3.0175 0.6675 3.3475 1.6875 3.6875 C-3.64583333 6.35416667 -8.97916667 9.02083333 -14.3125 11.6875 C-14.99086914 12.07824707 -15.66923828 12.46899414 -16.36816406 12.87158203 C-18.3125 13.6875 -18.3125 13.6875 -21.3125 12.6875 C-16.0325 10.0475 -10.7525 7.4075 -5.3125 4.6875 C-5.9725 4.0275 -6.6325 3.3675 -7.3125 2.6875 C-2.88173077 -0.38942308 -2.88173077 -0.38942308 0 0 Z " fill="#E5E5E9" transform="translate(218.3125,43.3125)"/>
<path d="M0 0 C0.08636719 0.69867188 0.17273438 1.39734375 0.26171875 2.1171875 C0.68204824 4.83968863 1.13743453 7.38196209 2 10 C4.45748398 11.75568004 4.45748398 11.75568004 7 12 C7 12.33 7 12.66 7 13 C3.6875 12.9375 3.6875 12.9375 0 12 C-2.02081728 8.47986667 -3 6.06447787 -3 2 C-4.65 1.67 -6.3 1.34 -8 1 C-4.85571151 -0.9090323 -3.47925125 -1.04523725 0 0 Z " fill="#B2B0C4" transform="translate(114,66)"/>
<path d="M0 0 C-0.84304687 0.41378906 -0.84304687 0.41378906 -1.703125 0.8359375 C-4.08618794 2.04368028 -6.4179008 3.32176809 -8.75 4.625 C-9.54921875 5.07101563 -10.3484375 5.51703125 -11.171875 5.9765625 C-12.07679687 6.48316406 -12.07679687 6.48316406 -13 7 C-13 9.16706727 -12.95234595 11.33431347 -12.875 13.5 C-13 17 -13 17 -15 20 C-14.98839844 19.40832031 -14.97679688 18.81664063 -14.96484375 18.20703125 C-14.92478208 14.69877321 -14.89212992 11.50698939 -15.625 8.0625 C-15.74875 7.381875 -15.8725 6.70125 -16 6 C-10.98887769 0.98887769 -7.05546488 -0.20158471 0 0 Z " fill="#DDDCE2" transform="translate(105,86)"/>
<path d="M0 0 C0.99 0.66 1.98 1.32 3 2 C3 2.99 3 3.98 3 5 C2.46890625 4.66226562 1.9378125 4.32453125 1.390625 3.9765625 C-1.71992048 2.70591484 -3.92702015 3.01380654 -7.25 3.375 C-8.32765625 3.48585938 -9.4053125 3.59671875 -10.515625 3.7109375 C-11.74539062 3.85402344 -11.74539062 3.85402344 -13 4 C-13 3.34 -13 2.68 -13 2 C-8.48038922 -0.25980539 -4.95745506 -0.31983581 0 0 Z " fill="#7C7794" transform="translate(91,23)"/>
<path d="M0 0 C-2.51830747 3.12270126 -3.7261549 3.94523098 -7.75 4.75 C-9.35875 4.87375 -9.35875 4.87375 -11 5 C-10.6875 3.125 -10.6875 3.125 -10 1 C-6.1496895 -1.56687367 -4.41430237 -0.83288724 0 0 Z " fill="#B8B7C3" transform="translate(52,113)"/>
<path d="M0 0 C0.99 0.495 0.99 0.495 2 1 C2 1.99 2 2.98 2 4 C3.32 4.33 4.64 4.66 6 5 C6 8.63 6 12.26 6 16 C5.01 15.67 4.02 15.34 3 15 C2.05078125 12.63671875 2.05078125 12.63671875 1.3125 9.6875 C1.06113281 8.72199219 0.80976562 7.75648437 0.55078125 6.76171875 C0 4 0 4 0 0 Z M3 6 C3.33 8.31 3.66 10.62 4 13 C4.33 13 4.66 13 5 13 C5 10.69 5 8.38 5 6 C4.34 6 3.68 6 3 6 Z " fill="#DBDAE3" transform="translate(82,90)"/>
<path d="M0 0 C1.32 0.66 2.64 1.32 4 2 C6.6084792 2.29414765 9.13533311 2.50637617 11.75 2.625 C12.44738281 2.66367187 13.14476562 2.70234375 13.86328125 2.7421875 C15.57510818 2.83598624 17.28751682 2.91906174 19 3 C19 3.33 19 3.66 19 4 C13.72 4 8.44 4 3 4 C2.54625 5.299375 2.0925 6.59875 1.625 7.9375 C0.25 11.875 0.25 11.875 -2 13 C-1.34 8.71 -0.68 4.42 0 0 Z " fill="#E1E0E7" transform="translate(166,44)"/>
<path d="M0 0 C-2.5722113 3.00091319 -5.35030652 4.52608532 -9 6 C-12.875 6.1875 -12.875 6.1875 -16 6 C-13.41495867 0.82991733 -5.23484343 -0.53690702 0 0 Z " fill="#B9B8C4" transform="translate(214,47)"/>
<path d="M0 0 C0.33 0 0.66 0 1 0 C1.18175781 0.87011719 1.18175781 0.87011719 1.3671875 1.7578125 C2.33735474 6.28028442 3.43397783 10.63750966 5 15 C3.68 15 2.36 15 1 15 C0 14 0 14 -0.09765625 10.83984375 C-0.08025391 8.90818359 -0.08025391 8.90818359 -0.0625 6.9375 C-0.05347656 5.64714844 -0.04445312 4.35679688 -0.03515625 3.02734375 C-0.02355469 2.02832031 -0.01195312 1.02929688 0 0 Z " fill="#534F6E" transform="translate(48,57)"/>
<path d="M0 0 C0.99 0 1.98 0 3 0 C2.34 5.94 1.68 11.88 1 18 C-1.23920243 14.64119635 -1.24603334 13.48423396 -1.1875 9.5625 C-1.18105469 8.61503906 -1.17460938 7.66757812 -1.16796875 6.69140625 C-1.01959281 4.3139406 -0.67263878 2.27620963 0 0 Z " fill="#6F6C85" transform="translate(76,44)"/>
<path d="M0 0 C0.66 0.33 1.32 0.66 2 1 C0.515 2.485 0.515 2.485 -1 4 C-0.01 4.33 0.98 4.66 2 5 C-1.2837938 7.48772258 -2.61198583 8.03180444 -6.8125 7.6875 C-8.3903125 7.3471875 -8.3903125 7.3471875 -10 7 C-7.20283196 3.70921407 -3.80471422 1.93694542 0 0 Z " fill="#D9D8DF" transform="translate(115,97)"/>
<path d="M0 0 C2.78489278 1.39244639 4.12301529 3.55991988 6 6 C5.34 7.32 4.68 8.64 4 10 C3.7525 9.38125 3.505 8.7625 3.25 8.125 C1.79371361 5.64931313 0.62187494 5.04874998 -2 4 C-2 3.01 -2 2.02 -2 1 C-1.34 0.67 -0.68 0.34 0 0 Z " fill="#AAA9BC" transform="translate(61,80)"/>
<path d="M0 0 C0.99 0 1.98 0 3 0 C4.24200752 5.3177215 5.30834212 10.58201328 6 16 C4 15 4 15 2.9296875 12.3828125 C2.58164063 11.30773437 2.23359375 10.23265625 1.875 9.125 C1.52179688 8.05507813 1.16859375 6.98515625 0.8046875 5.8828125 C0 3 0 3 0 0 Z " fill="#5D5873" transform="translate(111,24)"/>
<path d="M0 0 C2.16321167 3.24481751 3.6314591 6.35055759 5 10 C4.67 10.99 4.34 11.98 4 13 C3.34 10.69 2.68 8.38 2 6 C1.34 6 0.68 6 0 6 C0 7.65 0 9.3 0 11 C-2.29633824 7.55549263 -2.54016485 5.06187717 -3 1 C-2.01 2.485 -2.01 2.485 -1 4 C-0.67 2.68 -0.34 1.36 0 0 Z " fill="#D6D5DB" transform="translate(117,35)"/>
<path d="M0 0 C0.54527344 0.38671875 1.09054688 0.7734375 1.65234375 1.171875 C6.89083914 4.78957096 12.09461623 7.62667792 18 10 C15 11 15 11 12.1875 9.890625 C11.135625 9.34921875 10.08375 8.8078125 9 8.25 C7.948125 7.71890625 6.89625 7.1878125 5.8125 6.640625 C3.42117445 5.2456851 1.70561179 4.15570379 0 2 C0 1.34 0 0.68 0 0 Z " fill="#D8D7DE" transform="translate(55,71)"/>
<path d="M0 0 C0.33 0 0.66 0 1 0 C1 1.98 1 3.96 1 6 C-1.6875 7.1875 -1.6875 7.1875 -5 8 C-7.875 6.625 -7.875 6.625 -10 5 C-8 4 -8 4 -5 3.625 C-1.69501103 3.30239632 -1.69501103 3.30239632 0 0 Z " fill="#C0BEC9" transform="translate(153,59)"/>
<path d="M0 0 C0.66 0.33 1.32 0.66 2 1 C0.35 1.66 -1.3 2.32 -3 3 C-3 3.66 -3 4.32 -3 5 C-8.41538462 8.07692308 -8.41538462 8.07692308 -11.375 7.6875 C-11.91125 7.460625 -12.4475 7.23375 -13 7 C-11.59654131 4.19308262 -9.95890933 4.03040625 -7.0625 2.9375 C-3.47975239 1.58576094 -3.47975239 1.58576094 0 0 Z " fill="#CAC9D0" transform="translate(47,147)"/>
<path d="M0 0 C0.66 0.66 1.32 1.32 2 2 C-1.49087093 6.0042343 -3.64951939 7.62671065 -9 8 C-6.78189589 4.61447267 -4.52377014 2.94734666 -1 1 C-0.67 0.67 -0.34 0.34 0 0 Z " fill="#C3C2CB" transform="translate(63,136)"/>
<path d="M0 0 C3.95677402 1.67401978 6.84464213 4.13149285 10 7 C10 7.66 10 8.32 10 9 C8.68 9 7.36 9 6 9 C5.67 8.01 5.34 7.02 5 6 C4.01 5.67 3.02 5.34 2 5 C0.8125 2.4375 0.8125 2.4375 0 0 Z " fill="#514B73" transform="translate(78,85)"/>
<path d="M0 0 C0.66 0.33 1.32 0.66 2 1 C1.443125 1.680625 0.88625 2.36125 0.3125 3.0625 C-2.23990382 6.30474269 -4.62060099 9.62918473 -7 13 C-7.74609375 11.296875 -7.74609375 11.296875 -8 9 C-6.34765625 6.640625 -6.34765625 6.640625 -4.0625 4.25 C-3.31097656 3.45078125 -2.55945313 2.6515625 -1.78515625 1.828125 C-1.19605469 1.22484375 -0.60695313 0.6215625 0 0 Z " fill="#78758C" transform="translate(30,125)"/>
<path d="M0 0 C0 0.66 0 1.32 0 2 C0.99 2.33 1.98 2.66 3 3 C0.03 5.31 -2.94 7.62 -6 10 C-6.66 9.67 -7.32 9.34 -8 9 C-6.35 7.35 -4.7 5.7 -3 4 C-3.66 3.67 -4.32 3.34 -5 3 C-2.25 0 -2.25 0 0 0 Z " fill="#DBDBE1" transform="translate(41,116)"/>
<path d="M0 0 C2 2 2 2 2 5 C4.71224618 3.38731308 7.37352812 1.75098126 10 0 C8.4169423 4.2742558 5.49431596 6.26531794 2 9 C0.50178941 5.62902617 0 3.79557881 0 0 Z " fill="#E5E4E9" transform="translate(65,124)"/>
<path d="M0 0 C0.66 0 1.32 0 2 0 C3.32 3.63 4.64 7.26 6 11 C5.01 11.495 5.01 11.495 4 12 C-0.57142857 4.71428571 -0.57142857 4.71428571 0 0 Z " fill="#67617A" transform="translate(117,41)"/>
<path d="M0 0 C0.66 0.33 1.32 0.66 2 1 C1.36191406 1.40992187 0.72382813 1.81984375 0.06640625 2.2421875 C-1.17302734 3.05042969 -1.17302734 3.05042969 -2.4375 3.875 C-3.26121094 4.40867187 -4.08492187 4.94234375 -4.93359375 5.4921875 C-7.11038871 6.83834306 -7.11038871 6.83834306 -8 9 C-10 8 -10 8 -11 6 C-9.21385682 4.96953278 -7.42089982 3.95086764 -5.625 2.9375 C-4.62726563 2.36902344 -3.62953125 1.80054687 -2.6015625 1.21484375 C-1.74304688 0.81394531 -0.88453125 0.41304688 0 0 Z " fill="#9693A5" transform="translate(146,81)"/>
<path d="M0 0 C1.32 0.66 2.64 1.32 4 2 C2.02 2.33 0.04 2.66 -2 3 C-2.33 5.64 -2.66 8.28 -3 11 C-5 9 -5 9 -5.4375 6.625 C-5 4 -5 4 -2.5 1.6875 C-1.2625 0.8521875 -1.2625 0.8521875 0 0 Z " fill="#858399" transform="translate(103,69)"/>
<path d="M0 0 C0.33 0 0.66 0 1 0 C1.21755666 5.4389165 1.10428384 9.87080814 -1 15 C-1.66 14.67 -2.32 14.34 -3 14 C-2.01 9.38 -1.02 4.76 0 0 Z " fill="#828096" transform="translate(97,37)"/>
<path d="M0 0 C2 1 2 1 2.8515625 3.06640625 C3.10679687 3.89011719 3.36203125 4.71382813 3.625 5.5625 C3.88539063 6.38878906 4.14578125 7.21507813 4.4140625 8.06640625 C4.60742188 8.70449219 4.80078125 9.34257813 5 10 C4.34 10 3.68 10 3 10 C2.34 7.69 1.68 5.38 1 3 C-0.65 3.66 -2.3 4.32 -4 5 C-2.68 3.35 -1.36 1.7 0 0 Z " fill="#DDDCE2" transform="translate(129,74)"/>
<path d="M0 0 C4 4.75 4 4.75 4 7 C4.66 7.33 5.32 7.66 6 8 C6 8.99 6 9.98 6 11 C5.34 11 4.68 11 4 11 C2.5 8.75 2.5 8.75 1 6 C0.38125 4.9171875 0.38125 4.9171875 -0.25 3.8125 C-0.4975 3.214375 -0.745 2.61625 -1 2 C-0.67 1.34 -0.34 0.68 0 0 Z " fill="#8D88A3" transform="translate(77,98)"/>
<path d="M0 0 C0.33 0 0.66 0 1 0 C1.33 2.64 1.66 5.28 2 8 C4.475 8.99 4.475 8.99 7 10 C7 10.33 7 10.66 7 11 C4.69 10.67 2.38 10.34 0 10 C-0.95024979 6.30458414 -0.95024979 3.69541586 0 0 Z " fill="#E0E0E6" transform="translate(114,68)"/>
<path d="M0 0 C1.5 1.125 1.5 1.125 3 3 C3.1875 6.1875 3.1875 6.1875 3 9 C2.01 9.495 2.01 9.495 1 10 C0 3.375 0 3.375 0 0 Z " fill="#A19DAD" transform="translate(122,48)"/>
<path d="M0 0 C0.66 0.33 1.32 0.66 2 1 C1.67 1.94875 1.34 2.8975 1 3.875 C-0.10159191 6.77062452 -0.10159191 6.77062452 0 9 C-0.99 8.67 -1.98 8.34 -3 8 C-2.25 2.25 -2.25 2.25 0 0 Z " fill="#73708C" transform="translate(85,65)"/>
<path d="M0 0 C3.81684226 1.55500981 6.19195732 4.03595495 9 7 C4.71193127 6.52354792 2.73352513 5.34097516 0 2 C0 1.34 0 0.68 0 0 Z " fill="#726D85" transform="translate(139,57)"/>
<path d="M0 0 C1.32 0.66 2.64 1.32 4 2 C3.01 2.66 2.02 3.32 1 4 C1.33 6.31 1.66 8.62 2 11 C-1.03333922 7.96666078 -0.6646334 5.2256192 -1 1 C-0.67 0.67 -0.34 0.34 0 0 Z " fill="#E4E3E8" transform="translate(115,24)"/>
<path d="M0 0 C4.6875 3.61328125 4.6875 3.61328125 6 5 C6 5.99 6 6.98 6 8 C4.125 7.6875 4.125 7.6875 2 7 C0 4 0 4 0 0 Z " fill="#4C4873" transform="translate(54,71)"/>
<path d="M0 0 C0.99 0.33 1.98 0.66 3 1 C0.19195732 3.96404505 -2.18315774 6.44499019 -6 8 C-4.75237172 4.15314615 -3.6129609 1.97070595 0 0 Z " fill="#B8B6C1" transform="translate(72,28)"/>
<path d="M0 0 C3.875 0.875 3.875 0.875 5 2 C5.04063832 3.66617115 5.042721 5.33388095 5 7 C4.01 7.495 4.01 7.495 3 8 C3 6.68 3 5.36 3 4 C2.34 4 1.68 4 1 4 C0.67 2.68 0.34 1.36 0 0 Z " fill="#403C6A" transform="translate(82,106)"/>
<path d="M0 0 C0.99 0.66 1.98 1.32 3 2 C2.67 3.65 2.34 5.3 2 7 C0.35 7 -1.3 7 -3 7 C-2 5 -2 5 0 4 C0 2.68 0 1.36 0 0 Z " fill="#8C8AA3" transform="translate(52,67)"/>
</svg>
